<mxfile host="app.diagrams.net" modified="2023-10-02T12:31:33.779Z" agent="Mozilla/5.0 (X11; Linux x86_64; rv:109.0) Gecko/20100101 Firefox/117.0" etag="I8PlHXRWLWUd36IcrG3s" version="22.0.0" type="device">
  <diagram name="Page-1" id="0pbR37fy-8RCgxXV9L8N">
    <mxGraphModel dx="1248" dy="228" grid="1" gridSize="10" guides="1" tooltips="1" connect="1" arrows="1" fold="1" page="1" pageScale="1" pageWidth="850" pageHeight="1100" math="0" shadow="0">
      <root>
        <mxCell id="0" />
        <mxCell id="1" parent="0" />
        <mxCell id="E-yfVbu-EpC7pfPZrW5F-1" value="" style="ellipse;shape=cloud;whiteSpace=wrap;html=1;" vertex="1" parent="1">
          <mxGeometry x="-360" y="320" width="420" height="380" as="geometry" />
        </mxCell>
        <mxCell id="E-yfVbu-EpC7pfPZrW5F-2" value="&lt;font style=&quot;font-size: 15px;&quot;&gt;Proceed MS&lt;/font&gt;" style="image;points=[];aspect=fixed;html=1;align=center;shadow=0;dashed=0;image=img/lib/allied_telesis/storage/Datacenter_Server_Half_Rack_ToR.svg;" vertex="1" parent="1">
          <mxGeometry x="-270" y="440" width="115.45" height="150" as="geometry" />
        </mxCell>
        <mxCell id="E-yfVbu-EpC7pfPZrW5F-17" value="&lt;font style=&quot;font-size: 15px;&quot;&gt;BPMN&lt;br&gt;Assets&lt;br&gt;&lt;/font&gt;" style="strokeWidth=2;html=1;shape=mxgraph.flowchart.database;whiteSpace=wrap;verticalAlign=bottom;" vertex="1" parent="1">
          <mxGeometry x="-100" y="420" width="80" height="100" as="geometry" />
        </mxCell>
        <mxCell id="E-yfVbu-EpC7pfPZrW5F-35" value="" style="shape=actor;whiteSpace=wrap;html=1;aspect=fixed;" vertex="1" parent="1">
          <mxGeometry x="-411" y="490" width="52.5" height="70" as="geometry" />
        </mxCell>
        <mxCell id="E-yfVbu-EpC7pfPZrW5F-42" value="" style="group;aspect=fixed;" vertex="1" connectable="0" parent="1">
          <mxGeometry x="64" y="476" width="132.43" height="131.61" as="geometry" />
        </mxCell>
        <mxCell id="E-yfVbu-EpC7pfPZrW5F-36" value="&lt;p style=&quot;line-height: 190%; font-size: 12px;&quot;&gt;&lt;/p&gt;&lt;div align=&quot;center&quot; style=&quot;font-size: 12px;&quot;&gt;&lt;sup style=&quot;font-size: 12px;&quot;&gt;DPE&lt;/sup&gt;&lt;/div&gt;&lt;p style=&quot;font-size: 12px;&quot;&gt;&lt;/p&gt;" style="image;points=[];aspect=fixed;html=1;align=center;shadow=0;dashed=0;image=img/lib/allied_telesis/storage/Datacenter_Server_Half_Rack_ToR.svg;verticalAlign=bottom;horizontal=1;labelPosition=center;verticalLabelPosition=top;fontSize=12;spacing=-17;labelBackgroundColor=none;" vertex="1" parent="E-yfVbu-EpC7pfPZrW5F-42">
          <mxGeometry width="43.14054405891811" height="56.05317307193611" as="geometry" />
        </mxCell>
        <mxCell id="E-yfVbu-EpC7pfPZrW5F-37" value="DPE" style="image;points=[];aspect=fixed;html=1;align=center;shadow=0;dashed=0;image=img/lib/allied_telesis/storage/Datacenter_Server_Half_Rack_ToR.svg;" vertex="1" parent="E-yfVbu-EpC7pfPZrW5F-42">
          <mxGeometry x="45.46206991338624" y="75.55503366212619" width="43.14054405891811" height="56.05317307193611" as="geometry" />
        </mxCell>
        <mxCell id="E-yfVbu-EpC7pfPZrW5F-38" value="&lt;p style=&quot;line-height: 190%; font-size: 12px;&quot;&gt;&lt;/p&gt;&lt;div align=&quot;center&quot; style=&quot;font-size: 12px;&quot;&gt;&lt;sup style=&quot;font-size: 12px;&quot;&gt;DPE&lt;/sup&gt;&lt;/div&gt;&lt;p style=&quot;font-size: 12px;&quot;&gt;&lt;/p&gt;" style="image;points=[];aspect=fixed;html=1;align=center;shadow=0;dashed=0;image=img/lib/allied_telesis/storage/Datacenter_Server_Half_Rack_ToR.svg;verticalAlign=bottom;horizontal=1;labelPosition=center;verticalLabelPosition=top;fontSize=12;spacing=-17;labelBackgroundColor=none;" vertex="1" parent="E-yfVbu-EpC7pfPZrW5F-42">
          <mxGeometry x="89.2894559410819" width="43.14054405891811" height="56.05317307193611" as="geometry" />
        </mxCell>
        <mxCell id="E-yfVbu-EpC7pfPZrW5F-39" value="" style="endArrow=classic;startArrow=classic;html=1;rounded=0;" edge="1" parent="E-yfVbu-EpC7pfPZrW5F-42">
          <mxGeometry width="50" height="50" relative="1" as="geometry">
            <mxPoint x="89.2894559410819" y="89.2923125097855" as="sourcePoint" />
            <mxPoint x="110.58155697318605" y="54.94911539063723" as="targetPoint" />
          </mxGeometry>
        </mxCell>
        <mxCell id="E-yfVbu-EpC7pfPZrW5F-40" value="" style="endArrow=classic;startArrow=classic;html=1;rounded=0;exitX=1;exitY=0.581;exitDx=0;exitDy=0;exitPerimeter=0;entryX=0;entryY=0.581;entryDx=0;entryDy=0;entryPerimeter=0;jumpSize=5;sourcePerimeterSpacing=0;strokeWidth=1;startSize=6;endSize=6;spacing=1;spacingBottom=-1;" edge="1" parent="E-yfVbu-EpC7pfPZrW5F-42" target="E-yfVbu-EpC7pfPZrW5F-38">
          <mxGeometry width="50" height="50" relative="1" as="geometry">
            <mxPoint x="43.14054405891815" y="32.56793544230465" as="sourcePoint" />
            <mxPoint x="36.64543877204851" y="35.2580518099263" as="targetPoint" />
          </mxGeometry>
        </mxCell>
        <mxCell id="E-yfVbu-EpC7pfPZrW5F-41" value="" style="endArrow=classic;startArrow=classic;html=1;rounded=0;" edge="1" parent="E-yfVbu-EpC7pfPZrW5F-42">
          <mxGeometry width="50" height="50" relative="1" as="geometry">
            <mxPoint x="44.64472797054095" y="89.2923125097855" as="sourcePoint" />
            <mxPoint x="23.352626938436806" y="54.94911539063723" as="targetPoint" />
          </mxGeometry>
        </mxCell>
        <mxCell id="E-yfVbu-EpC7pfPZrW5F-44" value="" style="endArrow=classic;startArrow=classic;html=1;rounded=0;" edge="1" parent="1">
          <mxGeometry width="50" height="50" relative="1" as="geometry">
            <mxPoint x="-356" y="540" as="sourcePoint" />
            <mxPoint x="-273" y="540" as="targetPoint" />
          </mxGeometry>
        </mxCell>
        <mxCell id="E-yfVbu-EpC7pfPZrW5F-46" value="" style="endArrow=classic;startArrow=classic;html=1;rounded=0;" edge="1" parent="1">
          <mxGeometry width="50" height="50" relative="1" as="geometry">
            <mxPoint x="-154" y="514.75" as="sourcePoint" />
            <mxPoint x="-102" y="471" as="targetPoint" />
          </mxGeometry>
        </mxCell>
        <mxCell id="E-yfVbu-EpC7pfPZrW5F-47" value="" style="endArrow=classic;startArrow=classic;html=1;rounded=0;" edge="1" parent="1">
          <mxGeometry width="50" height="50" relative="1" as="geometry">
            <mxPoint x="-153" y="550" as="sourcePoint" />
            <mxPoint x="87" y="550" as="targetPoint" />
          </mxGeometry>
        </mxCell>
      </root>
    </mxGraphModel>
  </diagram>
</mxfile>
